<svg width="52" height="22" viewBox="0 0 52 22" fill="none" xmlns="http://www.w3.org/2000/svg">
<path d="M1.6247 0.219131C1.19343 -0.125878 0.564141 -0.055957 0.219131 0.375305C-0.125878 0.806567 -0.055957 1.43586 0.375305 1.78087L1.6247 0.219131ZM26 21L25.3753 21.7809C25.7405 22.073 26.2595 22.073 26.6247 21.7809L26 21ZM51.6247 1.78087C52.056 1.43586 52.1259 0.806567 51.7809 0.375305C51.4359 -0.055957 50.8066 -0.125878 50.3753 0.219131L51.6247 1.78087ZM0.375305 1.78087L25.3753 21.7809L26.6247 20.2191L1.6247 0.219131L0.375305 1.78087ZM26.6247 21.7809L51.6247 1.78087L50.3753 0.219131L25.3753 20.2191L26.6247 21.7809Z" fill="#FCFDFF"/>
</svg>
