<svg width="57" height="8" viewBox="0 0 57 8" fill="none" xmlns="http://www.w3.org/2000/svg">
<path d="M1 3.5C0.723858 3.5 0.5 3.72386 0.5 4C0.5 4.27614 0.723858 4.5 1 4.5L1 3.5ZM56.3536 4.35355C56.5488 4.15829 56.5488 3.8417 56.3536 3.64644L53.1716 0.464462C52.9763 0.269199 52.6597 0.269199 52.4645 0.464462C52.2692 0.659724 52.2692 0.976306 52.4645 1.17157L55.2929 4L52.4645 6.82842C52.2692 7.02368 52.2692 7.34027 52.4645 7.53553C52.6597 7.73079 52.9763 7.73079 53.1716 7.53553L56.3536 4.35355ZM1 4.5L56 4.5L56 3.5L1 3.5L1 4.5Z" fill="#FCFDFF"/>
</svg>
