<svg width="30" height="31" viewBox="0 0 30 31" fill="none" xmlns="http://www.w3.org/2000/svg">
<path d="M9.99805 3.46332C6.13905 3.46332 3 6.60527 3 10.4653V20.4653C3 24.3243 6.14195 27.4633 10.002 27.4633H20.002C23.861 27.4633 27 24.3214 27 20.4614V10.4614C27 6.60236 23.858 3.46332 19.998 3.46332H9.99805ZM22 7.46332C22.552 7.46332 23 7.91132 23 8.46332C23 9.01532 22.552 9.46332 22 9.46332C21.448 9.46332 21 9.01532 21 8.46332C21 7.91132 21.448 7.46332 22 7.46332ZM15 9.46332C18.309 9.46332 21 12.1543 21 15.4633C21 18.7723 18.309 21.4633 15 21.4633C11.691 21.4633 9 18.7723 9 15.4633C9 12.1543 11.691 9.46332 15 9.46332ZM15 11.4633C13.9391 11.4633 12.9217 11.8847 12.1716 12.6349C11.4214 13.385 11 14.4025 11 15.4633C11 16.5242 11.4214 17.5416 12.1716 18.2917C12.9217 19.0419 13.9391 19.4633 15 19.4633C16.0609 19.4633 17.0783 19.0419 17.8284 18.2917C18.5786 17.5416 19 16.5242 19 15.4633C19 14.4025 18.5786 13.385 17.8284 12.6349C17.0783 11.8847 16.0609 11.4633 15 11.4633Z" fill="#FCFDFF"/>
</svg>
