<svg width="12" height="397" viewBox="0 0 12 397" fill="none" xmlns="http://www.w3.org/2000/svg">
<circle cx="6" cy="5" r="5" fill="#EF5803"/>
<path d="M6 17V154" stroke="#EF5803" stroke-width="1.5"/>
<circle cx="6" cy="166" r="5" fill="#EF5803"/>
<path d="M6 178L5.99999 331" stroke="#EF5803" stroke-width="1.5"/>
<circle cx="6" cy="343" r="5" fill="#EF5803"/>
<path d="M5.46967 396.53C5.76256 396.823 6.23744 396.823 6.53033 396.53L11.3033 391.757C11.5962 391.464 11.5962 390.99 11.3033 390.697C11.0104 390.404 10.5355 390.404 10.2426 390.697L6 394.939L1.75736 390.697C1.46446 390.404 0.989591 390.404 0.696698 390.697C0.403804 390.99 0.403804 391.464 0.696698 391.757L5.46967 396.53ZM5.25 355L5.25 396L6.75 396L6.75 355L5.25 355Z" fill="#EF5803"/>
</svg>
