<svg width="12" height="525" viewBox="0 0 12 525" fill="none" xmlns="http://www.w3.org/2000/svg">
<circle cx="6" cy="5" r="5" fill="#EF5803"/>
<path d="M6 17V110" stroke="#EF5803" stroke-width="1.5"/>
<circle cx="6" cy="122" r="5" fill="#EF5803"/>
<path d="M6 134L6 217" stroke="#EF5803" stroke-width="1.5"/>
<circle cx="6" cy="229" r="5" fill="#EF5803"/>
<path d="M6 241L6 347" stroke="#EF5803" stroke-width="1.5"/>
<circle cx="6" cy="359" r="5" fill="#EF5803"/>
<path d="M6 371L6 481" stroke="#EF5803" stroke-width="1.5"/>
<circle cx="6" cy="493" r="5" fill="#EF5803"/>
<path d="M5.46967 524.53C5.76256 524.823 6.23744 524.823 6.53033 524.53L11.3033 519.757C11.5962 519.464 11.5962 518.99 11.3033 518.697C11.0104 518.404 10.5355 518.404 10.2426 518.697L6 522.939L1.75736 518.697C1.46447 518.404 0.989592 518.404 0.696699 518.697C0.403805 518.99 0.403805 519.464 0.696698 519.757L5.46967 524.53ZM5.25 505L5.25 524L6.75 524L6.75 505L5.25 505Z" fill="#EF5803"/>
</svg>
