<svg width="12" height="546" viewBox="0 0 12 546" fill="none" xmlns="http://www.w3.org/2000/svg">
<circle cx="6" cy="5" r="5" fill="#EF5803"/>
<path d="M6 17V110" stroke="#EF5803" stroke-width="1.5"/>
<circle cx="6" cy="122" r="5" fill="#EF5803"/>
<path d="M6 134L6 241" stroke="#EF5803" stroke-width="1.5"/>
<circle cx="6" cy="253" r="5" fill="#EF5803"/>
<path d="M6 265L6 348" stroke="#EF5803" stroke-width="1.5"/>
<circle cx="6" cy="360" r="5" fill="#EF5803"/>
<path d="M6 372L6 479" stroke="#EF5803" stroke-width="1.5"/>
<circle cx="6" cy="491" r="5" fill="#EF5803"/>
<path d="M5.46967 545.53C5.76256 545.823 6.23743 545.823 6.53033 545.53L11.3033 540.757C11.5962 540.464 11.5962 539.99 11.3033 539.697C11.0104 539.404 10.5355 539.404 10.2426 539.697L6 543.939L1.75736 539.697C1.46446 539.404 0.989591 539.404 0.696698 539.697C0.403804 539.99 0.403804 540.464 0.696697 540.757L5.46967 545.53ZM5.25 503L5.25 545L6.75 545L6.75 503L5.25 503Z" fill="#EF5803"/>
</svg>
