<svg width="150" height="169" viewBox="0 0 150 169" fill="none" xmlns="http://www.w3.org/2000/svg">
<g clip-path="url(#clip0_63_491)">
<path d="M5.86375 128.537C9.34282 128.537 11.1281 130.607 11.1281 134.233V134.945H7.74841V134.007C7.74841 132.388 7.09633 131.775 5.95917 131.775C4.82201 131.775 4.16993 132.388 4.16993 134.007C4.16993 138.666 11.1599 139.54 11.1599 146.012C11.1599 149.637 9.33885 151.707 5.82796 151.707C2.31707 151.707 0.5 149.637 0.5 146.012V144.619H3.87968V146.237C3.87968 147.856 4.59537 148.438 5.73253 148.438C6.8697 148.438 7.58539 147.856 7.58539 146.237C7.58539 141.579 0.595426 140.704 0.595426 134.233C0.599402 130.611 2.38467 128.537 5.86375 128.537Z" fill="#FCFDFF"/>
<path d="M12.1699 128.798H23.2235V132.036H19.4859V151.45H15.9114V132.036H12.1739V128.798H12.1699Z" fill="#FCFDFF"/>
<path d="M28.3567 138.345H33.2672V141.583H28.3567V148.216H34.5316V151.454H24.7822V128.802H34.5356V132.04H28.3567V138.345Z" fill="#FCFDFF"/>
<path d="M40.3167 138.345H45.2272V141.583H40.3167V148.216H46.4916V151.454H36.7422V128.802H46.4955V132.04H40.3207V138.345H40.3167Z" fill="#FCFDFF"/>
<path d="M48.7021 128.798H52.2767V148.212H58.1613V151.45H48.7021V128.798Z" fill="#FCFDFF"/>
<path d="M63.7197 128.798H74.7733V132.036H71.0357V151.45H67.4612V132.036H63.7197V128.798Z" fill="#FCFDFF"/>
<path d="M76.332 128.798H79.9065V151.45H76.332V128.798Z" fill="#FCFDFF"/>
<path d="M90.0813 144.88L92.5186 128.798H97.4927V151.45H94.113V135.206L91.6439 151.45H88.2642L85.6002 135.432V151.45H82.479V128.798H87.4531L90.0813 144.88Z" fill="#FCFDFF"/>
<path d="M103.668 138.345H108.574V141.583H103.668V148.216H109.843V151.454H100.089V128.802H109.843V132.04H103.668V138.345Z" fill="#FCFDFF"/>
<path d="M117.091 128.798H120.665V148.212H126.55V151.45H117.091V128.798Z" fill="#FCFDFF"/>
<path d="M128.113 128.798H131.687V148.212H137.572V151.45H128.113V128.798Z" fill="#FCFDFF"/>
<path d="M149.5 143.004V146.012C149.5 149.637 147.679 151.707 144.168 151.707C140.657 151.707 138.836 149.637 138.836 146.012V134.233C138.836 130.607 140.657 128.537 144.168 128.537C147.679 128.537 149.5 130.607 149.5 134.233V136.433H146.12V134.007C146.12 132.388 145.404 131.775 144.267 131.775C143.13 131.775 142.414 132.388 142.414 134.007V146.237C142.414 147.856 143.13 148.438 144.267 148.438C145.404 148.438 146.12 147.856 146.12 146.237V143H149.5V143.004Z" fill="#FCFDFF"/>
<path d="M92.2325 35.7331L107.791 54.2686H126.816L88.6858 8.83831C84.0338 3.29707 78.1054 0.245427 71.5448 0.0119033C65.7994 -0.18204 59.8233 1.9078 55.1753 5.7748C50.4795 9.67741 47.6764 14.9178 47.2748 20.5303C46.9806 24.6506 47.8513 31.0231 53.6763 37.9615L68.3242 55.4085L67.2944 54.1815L45.573 72.6259L46.2132 73.3859L42.1655 68.569H23.1797L45.1516 94.7157C55.7995 107.821 63.3899 110.71 71.9266 110.71C72.2526 110.71 72.5786 110.706 72.9087 110.698C79.3857 110.54 85.485 108.232 90.5466 104.021C96.9839 98.6658 100.853 91.5414 101.449 83.9538C102.022 76.6433 99.5047 69.5783 94.1887 63.5383L87.7713 55.8914L100.264 45.2839L98.9282 43.6927L98.8169 43.7877L82.662 43.8629L92.2325 35.7331ZM107.644 50.8489L96.3437 37.3876L109.727 39.0104L107.644 50.8489ZM96.5107 35.3175V21.3971L109.52 36.8928L96.5107 35.3175ZM94.4233 20.6768V35.1038L82.3479 20.7164L94.4233 20.6768ZM109.524 52.1946L111.751 39.5526L122.363 52.1946H109.524ZM68.5429 55.6697L82.9801 72.8674C88.0257 78.8796 87.2186 87.8525 81.1789 92.8752C78.2525 95.3094 74.5548 96.4612 70.7576 96.1248C66.9604 95.7844 63.5251 93.9953 61.0798 91.0862L46.909 74.225L47.1038 74.0587L63.533 73.754L53.6008 82.1885L54.9407 83.7797L76.6581 65.3392L75.3221 63.7481L67.6244 70.2867L68.535 55.8716L68.6383 55.7845L68.5429 55.6697ZM49.6048 71.9333L66.3242 57.7358L65.4495 71.6364L49.6048 71.9333ZM96.3517 45.8815L86.4274 54.3082L86.9641 54.9494L64.8809 28.6443C62.7418 26.0953 61.6881 23.6493 61.8392 21.5634C61.9903 19.4656 63.3899 17.8864 64.539 16.9285C66.372 15.4047 68.527 14.5577 70.6065 14.5497C70.6184 14.5497 70.6264 14.5497 70.6383 14.5497C73.1711 14.5497 75.4732 15.7649 77.4851 18.1595L90.9005 34.142L78.4076 44.7495L79.7436 46.3407L80.1968 45.9528L96.3517 45.8815Z" fill="#FCFDFF"/>
<path d="M75.6203 41.4367L64.8809 28.6403C62.7418 26.0914 61.6881 23.6453 61.8392 21.5594C61.9903 19.4617 63.3899 17.8824 64.539 16.9246C66.372 15.4007 68.527 14.5537 70.6065 14.5458H70.6383C73.1711 14.5458 75.4732 15.7609 77.4851 18.1555L77.8947 18.6463L96.8765 18.5949L88.6858 8.83831C84.0337 3.29707 78.1054 0.245427 71.5448 0.0119033C65.7994 -0.18204 59.8233 1.9078 55.1753 5.7748C50.4795 9.67741 47.6764 14.9178 47.2748 20.5303C46.9806 24.6506 47.8513 31.0231 53.6763 37.9615L82.9801 72.8674C88.0257 78.8796 87.2186 87.8525 81.1789 92.8752C78.2525 95.3094 74.5547 96.4612 70.7576 96.1248C66.9604 95.7844 63.5251 93.9953 61.0798 91.0862L42.1655 68.5769H23.1797L45.1516 94.7236C55.7995 107.829 63.3899 110.718 71.9266 110.718C72.2526 110.718 72.5786 110.714 72.9086 110.706C79.3857 110.548 85.485 108.24 90.5466 104.029C96.9839 98.6737 100.853 91.5493 101.449 83.9617C102.022 76.6513 99.5047 69.5862 94.1887 63.5462L76.0299 41.9156" fill="#E74510"/>
<path d="M0.782507 157.419C1.20795 157.427 1.44651 157.431 1.49025 157.431C4.25363 161.658 5.68503 163.859 5.7884 164.025H5.80033C5.85997 163.946 7.29137 161.749 10.0826 157.431H10.1104C10.1542 157.431 10.3808 157.427 10.7864 157.419C10.7864 157.427 10.7943 157.431 10.8062 157.431C10.8142 158.587 10.8182 159.469 10.8182 160.083V166.819C10.8182 166.843 10.8062 166.851 10.7864 166.851H9.54183L9.51002 166.839C9.51798 166.463 9.52195 166.178 9.52195 165.984V163.55C9.52195 162.778 9.5299 161.737 9.54183 160.423V160.411H9.52195C9.43845 160.558 8.43648 162.101 6.52 165.042C6.24565 165.474 6.09854 165.691 6.07071 165.699H5.47032C3.74469 163.043 2.60753 161.282 2.05883 160.407H2.0469V166.815C2.0469 166.839 2.03497 166.847 2.01509 166.847H0.770578C0.746722 166.847 0.73877 166.835 0.73877 166.815V157.447C0.73877 157.431 0.754674 157.419 0.782507 157.419Z" fill="#FCFDFF"/>
<path d="M12.9136 157.419H19.5617V157.431C19.5617 157.47 19.4424 157.85 19.1998 158.571L14.2337 158.602V161.492H18.9613L18.9891 161.504C18.7466 162.264 18.6154 162.644 18.5995 162.644H14.2377V165.683H19.7326C19.7485 165.687 19.7605 165.699 19.7605 165.715L19.4026 166.855H12.9136C12.8898 166.855 12.8818 166.843 12.8818 166.823V157.455C12.8858 157.431 12.8977 157.419 12.9136 157.419Z" fill="#FCFDFF"/>
<path d="M27.8794 157.419C27.9032 157.423 27.9112 157.435 27.9112 157.451C27.7004 158.187 27.5772 158.571 27.5493 158.602H24.6786V166.819C24.6786 166.843 24.6667 166.851 24.6468 166.851H23.3506C23.3347 166.851 23.3228 166.839 23.3228 166.819V158.602H20.1021L20.0703 158.591L20.448 157.419H27.8794Z" fill="#FCFDFF"/>
<path d="M32.8494 157.419C32.9807 157.645 34.4876 160.756 37.3703 166.764C37.3782 166.764 37.3941 166.792 37.418 166.843L37.3862 166.855H35.9906C35.9031 166.708 35.5293 165.929 34.8653 164.508H30.3445C30.3286 164.508 30.0503 165.086 29.5175 166.245C29.3187 166.649 29.2113 166.855 29.1994 166.859H27.8038L27.772 166.847L32.4121 157.423H32.8494V157.419ZM32.5791 159.734L30.8534 163.4H34.3365L32.6109 159.734H32.5791Z" fill="#FCFDFF"/>
<path d="M40.4124 157.419H47.0246C47.0485 157.423 47.0564 157.435 47.0564 157.451V166.815C47.0564 166.839 47.0445 166.847 47.0246 166.847H45.7483C45.7244 166.847 45.7165 166.835 45.7165 166.815V158.602H41.5376C41.4581 161.678 41.3467 163.498 41.2076 164.064C41.2076 164.282 41.0883 164.761 40.8497 165.497C40.4482 166.475 39.7881 166.966 38.8657 166.966C38.6112 166.966 38.3249 166.926 38.0068 166.847C38.0705 166.17 38.0983 165.778 38.0983 165.664L38.1261 165.652C38.2891 165.683 38.4363 165.699 38.5635 165.699C39.3309 165.699 39.8199 165.018 40.0386 163.661C40.1499 163.182 40.2573 161.25 40.3686 157.858C40.3647 157.565 40.3806 157.419 40.4124 157.419Z" fill="#FCFDFF"/>
<path d="M53.5653 157.419C55.1478 157.419 56.448 158.013 57.4738 159.2C58.1259 160.059 58.4519 161.009 58.4519 162.05V162.22C58.4519 163.744 57.7999 164.995 56.5037 165.976C55.613 166.558 54.6309 166.851 53.5534 166.851C51.8556 166.851 50.5037 166.198 49.4898 164.896C48.9133 164.072 48.623 163.178 48.623 162.216V162.046C48.623 160.609 49.2195 159.402 50.4163 158.42C51.3268 157.755 52.3765 157.419 53.5653 157.419ZM49.959 162.034V162.244C49.959 163.206 50.3367 164.049 51.0882 164.769C51.788 165.371 52.6111 165.671 53.5534 165.671C54.7661 165.671 55.7402 165.189 56.4758 164.223C56.9052 163.605 57.116 162.944 57.116 162.244V162.034C57.116 160.898 56.607 159.952 55.5892 159.192C54.9609 158.8 54.281 158.606 53.5534 158.606C52.3009 158.606 51.299 159.113 50.5475 160.126C50.1538 160.74 49.959 161.373 49.959 162.034Z" fill="#FCFDFF"/>
<path d="M60.0499 157.419H61.358C61.3739 157.423 61.3858 157.435 61.3858 157.451V161.361H62.6224C64.5866 158.974 65.6721 157.66 65.8828 157.419H67.2824V157.451L63.7317 161.888C63.8311 162.014 65.1989 163.661 67.8231 166.823V166.855H66.2566C66.189 166.788 64.9842 165.398 62.6343 162.675H61.3858V166.819C61.3858 166.843 61.3779 166.851 61.358 166.851H60.0499C60.026 166.851 60.0181 166.839 60.0181 166.819V157.451C60.022 157.431 60.034 157.419 60.0499 157.419Z" fill="#FCFDFF"/>
<path d="M72.3842 157.419C73.9667 157.419 75.2668 158.013 76.2927 159.2C76.9447 160.059 77.2708 161.009 77.2708 162.05V162.22C77.2708 163.744 76.6187 164.995 75.3225 165.976C74.4319 166.558 73.4498 166.851 72.3722 166.851C70.6745 166.851 69.3226 166.198 68.3087 164.896C67.7321 164.072 67.4419 163.178 67.4419 162.216V162.046C67.4419 160.609 68.0383 159.402 69.2351 158.42C70.1456 157.755 71.1953 157.419 72.3842 157.419ZM68.7779 162.034V162.244C68.7779 163.206 69.1556 164.049 69.9071 164.769C70.6069 165.371 71.4299 165.671 72.3722 165.671C73.585 165.671 74.5591 165.189 75.2947 164.223C75.7241 163.605 75.9348 162.944 75.9348 162.244V162.034C75.9348 160.898 75.4259 159.952 74.408 159.192C73.7798 158.8 73.0999 158.606 72.3722 158.606C71.1198 158.606 70.1178 159.113 69.3663 160.126C68.9727 160.74 68.7779 161.373 68.7779 162.034Z" fill="#FCFDFF"/>
<path d="M78.8687 157.419H80.1769C80.1928 157.423 80.2047 157.435 80.2047 157.451V161.464H85.64V157.451C85.64 157.427 85.648 157.419 85.6678 157.419H86.976C86.9998 157.423 87.0078 157.435 87.0078 157.451V166.819C87.0078 166.843 86.9959 166.851 86.976 166.851H85.6678C85.6519 166.851 85.64 166.839 85.64 166.819V162.659H80.2047V166.819C80.2047 166.843 80.1967 166.851 80.1769 166.851H78.8687C78.8449 166.851 78.8369 166.839 78.8369 166.819V157.451C78.8409 157.431 78.8528 157.419 78.8687 157.419Z" fill="#FCFDFF"/>
<path d="M93.5644 157.419C94.5385 157.419 95.2979 157.597 95.8387 157.957C95.9301 157.993 96.0534 158.084 96.2005 158.234V159.489H96.1727C95.286 158.895 94.447 158.602 93.6479 158.602H93.5763C92.3318 158.602 91.3377 159.093 90.5942 160.075C90.1767 160.692 89.966 161.381 89.966 162.133C89.966 163.392 90.5028 164.389 91.5803 165.125C92.1926 165.485 92.8566 165.664 93.5763 165.664H93.6479C94.447 165.664 95.286 165.367 96.1727 164.777H96.2005V166.032C95.9341 166.305 95.4967 166.53 94.8804 166.716C94.4788 166.803 94.0296 166.847 93.5325 166.847C91.9461 166.847 90.6539 166.265 89.6598 165.098C88.9839 164.247 88.6499 163.273 88.6499 162.176V162.085C88.6499 160.55 89.2781 159.299 90.5385 158.333C91.4093 157.728 92.4192 157.419 93.5644 157.419Z" fill="#FCFDFF"/>
<path d="M104.98 157.419C105.004 157.423 105.012 157.435 105.012 157.451C104.801 158.187 104.678 158.571 104.65 158.602H101.783V166.819C101.783 166.843 101.771 166.851 101.751 166.851H100.455C100.439 166.851 100.427 166.839 100.427 166.819V158.602H97.2066L97.1748 158.591L97.5525 157.419H104.98Z" fill="#FCFDFF"/>
<path d="M106.069 157.419H109.938C110.964 157.419 111.843 157.688 112.57 158.226C113.326 158.84 113.7 159.624 113.7 160.573V160.831C113.7 161.955 113.199 162.822 112.193 163.435C111.584 163.815 110.686 164.009 109.501 164.009H107.405V166.819C107.405 166.843 107.397 166.851 107.378 166.851H106.069C106.046 166.851 106.038 166.839 106.038 166.819V157.451C106.042 157.431 106.054 157.419 106.069 157.419ZM107.405 158.606V162.81H109.859C111.028 162.81 111.803 162.394 112.193 161.567C112.28 161.302 112.324 161.068 112.324 160.862V160.597C112.324 159.639 111.799 159.01 110.745 158.709C110.419 158.638 110.101 158.602 109.787 158.602H107.405V158.606Z" fill="#FCFDFF"/>
<path d="M113.831 157.419H115.218C115.258 157.447 115.516 157.937 115.998 158.899C117.314 161.444 118.061 162.901 118.24 163.277C118.308 163.19 119.333 161.246 121.322 157.447L121.369 157.419H122.65C122.626 157.49 121.691 159.22 119.846 162.612C118.992 164.219 118.447 165.208 118.208 165.58C117.572 166.431 116.821 166.859 115.954 166.859H115.942C115.512 166.859 115.095 166.768 114.685 166.582V165.497L114.705 165.466C115.29 165.616 115.683 165.691 115.882 165.691H115.97C116.574 165.691 117.099 165.28 117.548 164.452H117.56L113.831 157.439V157.419Z" fill="#FCFDFF"/>
<path d="M123.381 157.419H124.69C124.705 157.423 124.717 157.435 124.717 157.451V161.361H125.954C127.918 158.974 129.004 157.66 129.214 157.419H130.614V157.451L127.063 161.888C127.163 162.014 128.526 163.661 131.155 166.823V166.855H129.588C129.521 166.788 128.316 165.398 125.966 162.675H124.717V166.819C124.717 166.843 124.709 166.851 124.69 166.851H123.381C123.358 166.851 123.35 166.839 123.35 166.819V157.451C123.354 157.431 123.366 157.419 123.381 157.419Z" fill="#FCFDFF"/>
<path d="M131.862 157.419H133.139C133.162 157.423 133.17 157.435 133.17 157.451V165.675H138.451V157.451C138.455 157.427 138.463 157.419 138.479 157.419H139.759C139.775 157.423 139.787 157.435 139.787 157.451V165.675H141.222C141.238 165.675 141.25 165.683 141.25 165.703V168.624C141.222 168.652 140.809 168.775 140.001 169L139.989 168.968V166.855H131.866C131.842 166.855 131.834 166.847 131.834 166.827V157.451C131.834 157.431 131.846 157.419 131.862 157.419Z" fill="#FCFDFF"/>
<path d="M142.653 157.419H143.962C143.977 157.423 143.989 157.431 143.989 157.447V166.823C143.989 166.847 143.981 166.855 143.962 166.855H142.653C142.63 166.855 142.622 166.843 142.622 166.823V157.447C142.622 157.431 142.634 157.419 142.653 157.419Z" fill="#FCFDFF"/>
<path d="M146.057 155.25C146.391 155.25 146.617 155.44 146.733 155.824C146.745 155.86 146.753 155.903 146.753 155.955V155.974C146.753 156.291 146.578 156.513 146.224 156.647C146.14 156.655 146.073 156.659 146.025 156.659C145.731 156.659 145.516 156.493 145.385 156.164C145.361 156.077 145.353 156.006 145.353 155.955C145.353 155.59 145.564 155.357 145.989 155.25H146.057ZM146.657 157.407H147.953C147.965 157.407 147.981 157.423 147.993 157.455V166.823C147.993 166.847 147.985 166.855 147.965 166.855H146.641C146.617 166.855 146.609 166.843 146.609 166.823V157.455C146.609 157.439 146.625 157.423 146.657 157.407ZM148.57 155.25C148.888 155.25 149.11 155.424 149.246 155.776C149.258 155.828 149.265 155.875 149.265 155.915V156.022C149.265 156.323 149.079 156.532 148.705 156.647C148.653 156.655 148.605 156.659 148.558 156.659C148.224 156.659 147.997 156.469 147.878 156.093V155.915C147.878 155.618 148.057 155.4 148.419 155.27C148.431 155.27 148.478 155.262 148.57 155.25Z" fill="#FCFDFF"/>
</g>
<defs>
<clipPath id="clip0_63_491">
<rect width="149" height="169" fill="white" transform="translate(0.5)"/>
</clipPath>
</defs>
</svg>
