<svg width="160" height="43" viewBox="0 0 160 43" fill="none" xmlns="http://www.w3.org/2000/svg">
<path d="M26.6523 13.8543L32.6571 21.0406H40L25.282 3.42689C23.4865 1.27849 21.1985 0.0953437 18.6665 0.00480435C16.4505 -0.0703894 14.1441 0.739861 12.3487 2.23913C10.5379 3.75375 9.45446 5.78551 9.29947 7.96C9.18591 9.55748 9.52198 12.0281 11.7701 14.7182L17.4235 21.4826L17.026 21.0069L8.64268 28.158L8.88974 28.4526L7.32755 26.585H0L8.48001 36.7224C12.5896 41.8033 15.5191 42.9235 18.8138 42.9235C18.9396 42.9235 19.0654 42.922 19.1928 42.9189C21.6926 42.8576 24.0466 41.9629 26.0002 40.3301C28.4846 38.2539 29.9778 35.4916 30.2079 32.5499C30.4289 29.7155 29.4575 26.9763 27.4058 24.6346L24.929 21.6698L29.7506 17.5572L29.235 16.9403L29.1921 16.9771L22.9571 17.0063L26.6523 13.8543ZM32.5988 19.7148L28.2376 14.4957L33.4029 15.1249L32.5988 19.7148ZM28.302 13.6931V8.29607L33.3231 14.3039L28.302 13.6931ZM27.4964 8.01677V13.6103L22.8359 8.03212L27.4964 8.01677ZM33.3246 20.2365L34.184 15.3351L38.2798 20.2365H33.3246ZM17.5079 21.5839L23.0799 28.2516C25.0272 30.5826 24.7157 34.0614 22.3847 36.0088C21.2553 36.9526 19.8281 37.3991 18.3626 37.2687C16.8971 37.1367 15.5712 36.4431 14.6275 35.3152L9.15829 28.7779L9.23348 28.7135L15.5743 28.5953L11.741 31.8655L12.2581 32.4824L20.6399 25.3328L20.1243 24.7159L17.1534 27.251L17.5048 21.6621L17.5447 21.6284L17.5079 21.5839ZM10.1987 27.8894L16.6516 22.3849L16.3124 27.7758L10.1987 27.8894ZM28.2406 17.7889L24.4103 21.056L24.6175 21.3046L16.0945 11.1059C15.2689 10.1176 14.8623 9.16923 14.9206 8.36052C14.9789 7.5472 15.5191 6.93491 15.9626 6.56354C16.67 5.97273 17.5017 5.64433 18.3043 5.64127C18.3089 5.64127 18.312 5.64127 18.3166 5.64127C19.2941 5.64127 20.1826 6.11238 20.9591 7.04079L26.1367 13.2374L21.3151 17.35L21.8307 17.9669L22.0057 17.8165L28.2406 17.7889Z" fill="#111518"/>
<path d="M20.2409 16.0656L16.0961 11.1043C15.2705 10.1161 14.8638 9.1677 14.9221 8.35898C14.9804 7.54566 15.5206 6.93337 15.9641 6.56201C16.6715 5.9712 17.5033 5.6428 18.3058 5.63973H18.3181C19.2956 5.63973 20.1841 6.11084 20.9606 7.03926L21.1187 7.22954L28.4447 7.20959L25.2835 3.42689C23.4881 1.27849 21.2 0.0953437 18.668 0.00480435C16.4505 -0.0703894 14.1441 0.739861 12.3487 2.23913C10.5379 3.75375 9.45446 5.78551 9.29947 7.96C9.18591 9.55748 9.52198 12.0281 11.7701 14.7182L23.0799 28.2516C25.0272 30.5826 24.7157 34.0614 22.3847 36.0088C21.2553 36.9526 19.8281 37.3991 18.3626 37.2687C16.8971 37.1367 15.5712 36.4431 14.6275 35.3152L7.32755 26.5881H0L8.48001 36.7254C12.5896 41.8064 15.5191 42.9266 18.8138 42.9266C18.9396 42.9266 19.0654 42.9251 19.1928 42.922C21.6926 42.8606 24.0466 41.966 26.0002 40.3332C28.4846 38.2569 29.9777 35.4947 30.2079 32.553C30.4289 29.7186 29.4575 26.9794 27.4058 24.6377L20.3975 16.2513" fill="#EF5803"/>
<path d="M63.5989 6.50146C65.934 6.50146 67.1336 7.89741 67.1336 10.3415V10.8214H64.8652V10.1888C64.8652 9.09825 64.429 8.68383 63.6656 8.68383C62.9022 8.68383 62.4659 9.09825 62.4659 10.1888C62.4659 13.3309 67.1566 13.9198 67.1566 18.2833C67.1566 20.7275 65.9352 22.1234 63.5783 22.1234C61.2214 22.1234 60 20.7275 60 18.2833V17.3455H62.2696V18.436C62.2696 19.5266 62.7495 19.9192 63.5129 19.9192C64.2763 19.9192 64.7561 19.5266 64.7561 18.436C64.7561 15.294 60.0654 14.705 60.0654 10.3415C60.0642 7.89741 61.2639 6.50146 63.5989 6.50146Z" fill="#111518"/>
<path d="M67.8306 6.67578H75.2477V8.85694H72.7394V21.9475H70.3401V8.85815H67.8318V6.67578H67.8306Z" fill="#111518"/>
<path d="M78.6952 13.1114H81.9899V15.2926H78.6952V19.7651H82.8406V21.9463H76.2959V6.67578H82.8406V8.85694H78.6952V13.1114Z" fill="#111518"/>
<path d="M86.723 13.1114H90.0178V15.2926H86.723V19.7651H90.8684V21.9463H84.3237V6.67578H90.8684V8.85694H86.723V13.1114Z" fill="#111518"/>
<path d="M92.3516 6.67578H94.7508V19.7664H98.6999V21.9475H92.3516V6.67578Z" fill="#111518"/>
<path d="M102.43 6.67578H109.847V8.85694H107.339V21.9475H104.939V8.85815H102.431V6.67578H102.43Z" fill="#111518"/>
<path d="M110.894 6.67578H113.293V21.9475H110.894V6.67578Z" fill="#111518"/>
<path d="M120.121 17.5186L121.757 6.67578H125.095V21.9475H122.827V10.9957L121.169 21.9475H118.9L117.111 11.1484V21.9475H115.017V6.67578H118.355L120.121 17.5186Z" fill="#111518"/>
<path d="M129.24 13.1114H132.534V15.2926H129.24V19.7651H133.385V21.9463H126.84V6.67578H133.385V8.85694H129.24V13.1114Z" fill="#111518"/>
<path d="M138.25 6.67578H140.649V19.7664H144.598V21.9475H138.25V6.67578Z" fill="#111518"/>
<path d="M145.645 6.67578H148.044V19.7664H151.993V21.9475H145.645V6.67578Z" fill="#111518"/>
<path d="M160 16.2537V18.2821C160 20.7262 158.778 22.1222 156.422 22.1222C154.066 22.1222 152.843 20.7262 152.843 18.2821V10.3415C152.843 7.89741 154.065 6.50146 156.422 6.50146C158.778 6.50146 160 7.89741 160 10.3415V11.8247H157.73V10.1888C157.73 9.09825 157.25 8.68383 156.487 8.68383C155.724 8.68383 155.244 9.09825 155.244 10.1888V18.436C155.244 19.5266 155.724 19.9192 156.487 19.9192C157.25 19.9192 157.73 19.5266 157.73 18.436V16.2549H160V16.2537Z" fill="#111518"/>
<path d="M60.0295 28.5933C60.3176 28.5993 60.4757 28.6018 60.506 28.6018C62.366 31.4622 63.3312 32.9489 63.3993 33.0608H63.4078C63.4491 33.0073 64.4107 31.5206 66.2913 28.6018H66.3096C66.3388 28.6018 66.4907 28.5993 66.763 28.5933C66.763 28.5993 66.7679 28.6018 66.7764 28.6018C66.7825 29.3822 66.7849 29.9803 66.7849 30.3961V34.9536C66.7849 34.9682 66.7776 34.9754 66.763 34.9754H65.9266L65.9048 34.9669C65.9108 34.7116 65.9133 34.5184 65.9133 34.3883V32.7423C65.9133 32.2208 65.9181 31.5157 65.9266 30.6283V30.6198H65.9133C65.8574 30.717 65.1839 31.7625 63.8929 33.7525C63.7093 34.043 63.6084 34.1913 63.5902 34.1974H63.1853C62.022 32.4019 61.2573 31.2093 60.889 30.6185H60.8805V34.9536C60.8805 34.9682 60.8732 34.9754 60.8586 34.9754H60.0222C60.0076 34.9754 60.0003 34.9682 60.0003 34.9536V28.6164C59.9979 28.6018 60.0088 28.5933 60.0295 28.5933Z" fill="#111518"/>
<path d="M68.1964 28.5933H72.6737V28.6018C72.6737 28.6285 72.5922 28.885 72.4294 29.3713L69.0863 29.3932V31.3467H72.2689L72.2871 31.3552C72.1242 31.8682 72.0367 32.1247 72.0245 32.1247H69.0875V34.1804H72.7855C72.7977 34.1828 72.8038 34.1913 72.8038 34.2023L72.5631 34.9718H68.1977C68.1831 34.9718 68.1758 34.9645 68.1758 34.9499V28.6127C68.177 28.6018 68.1843 28.5933 68.1964 28.5933Z" fill="#111518"/>
<path d="M78.2726 28.5933C78.2872 28.5957 78.2945 28.6042 78.2945 28.6151C78.1523 29.1136 78.0708 29.3737 78.0501 29.3944H76.1185V34.9536C76.1185 34.9682 76.1112 34.9754 76.0966 34.9754H75.2237C75.2116 34.9754 75.2055 34.9682 75.2055 34.9536V29.3944H73.038L73.0161 29.3859L73.2702 28.5933H78.2726Z" fill="#111518"/>
<path d="M81.6196 28.5935C81.7083 28.7455 82.7234 30.851 84.6636 34.9137C84.6697 34.9137 84.6794 34.9319 84.6952 34.9672L84.6733 34.9757H83.7348C83.6753 34.8772 83.4236 34.3484 82.9787 33.3868H79.9347C79.9225 33.3868 79.7378 33.7783 79.3779 34.5611C79.2442 34.8347 79.1737 34.972 79.164 34.9745H78.2255L78.2036 34.966L81.3278 28.5923H81.6196V28.5935ZM81.4373 30.1605L80.2751 32.6392H82.6201L81.4579 30.1605H81.4373Z" fill="#111518"/>
<path d="M86.7106 28.5933H91.1611C91.1757 28.5957 91.183 28.6042 91.183 28.6151V34.9487C91.183 34.9633 91.1757 34.9706 91.1611 34.9706H90.3016C90.287 34.9706 90.2797 34.9633 90.2797 34.9487V29.3944H87.4679C87.4144 31.4744 87.3403 32.7058 87.2455 33.0887C87.2455 33.2371 87.1652 33.5604 87.0048 34.0588C86.7349 34.7202 86.2899 35.0508 85.67 35.0508C85.4973 35.0508 85.3053 35.0241 85.0913 34.9706C85.1326 34.5135 85.1533 34.2461 85.1533 34.1695L85.1715 34.161C85.281 34.1816 85.3794 34.1926 85.4657 34.1926C85.9824 34.1926 86.313 33.733 86.4577 32.8128C86.5319 32.4894 86.606 31.1814 86.6802 28.8874C86.6802 28.6917 86.6899 28.5933 86.7106 28.5933Z" fill="#111518"/>
<path d="M95.568 28.5933C96.6329 28.5933 97.5094 28.9956 98.1986 29.7992C98.6375 30.3815 98.8575 31.0234 98.8575 31.726V31.8415C98.8575 32.8711 98.4199 33.7185 97.5446 34.3834C96.9453 34.7785 96.284 34.9754 95.5594 34.9754C94.4167 34.9754 93.505 34.5354 92.8218 33.654C92.4328 33.096 92.2383 32.4919 92.2383 31.8427V31.7272C92.2383 30.7571 92.6407 29.939 93.4442 29.2752C94.0593 28.8206 94.7668 28.5933 95.568 28.5933ZM93.1379 31.7138V31.8561C93.1379 32.5065 93.3919 33.0754 93.8989 33.5653C94.3705 33.9713 94.9237 34.1755 95.5594 34.1755C96.3752 34.1755 97.0316 33.8485 97.5264 33.1957C97.8145 32.7775 97.9579 32.3314 97.9579 31.8561V31.7138C97.9579 30.9456 97.6151 30.3049 96.9295 29.7907C96.5052 29.5269 96.0481 29.3944 95.5582 29.3944C94.7158 29.3944 94.0411 29.7372 93.5329 30.4228C93.2692 30.8386 93.1379 31.2689 93.1379 31.7138Z" fill="#111518"/>
<path d="M99.9335 28.5933H100.815C100.827 28.5957 100.833 28.6042 100.833 28.6151V31.2592H101.666C102.99 29.6448 103.72 28.7562 103.86 28.5933H104.803V28.6151L102.413 31.6154C102.482 31.7017 103.401 32.814 105.168 34.9536V34.9754H104.113C104.068 34.9305 103.256 33.9895 101.674 32.149H100.833V34.9536C100.833 34.9682 100.827 34.9754 100.815 34.9754H99.9335C99.9189 34.9754 99.9116 34.9682 99.9116 34.9536V28.6164C99.9141 28.6018 99.9226 28.5933 99.9335 28.5933Z" fill="#111518"/>
<path d="M108.239 28.5933C109.304 28.5933 110.18 28.9956 110.87 29.7992C111.308 30.3815 111.528 31.0234 111.528 31.726V31.8415C111.528 32.8711 111.091 33.7185 110.216 34.3834C109.616 34.7785 108.955 34.9754 108.23 34.9754C107.088 34.9754 106.176 34.5354 105.493 33.654C105.104 33.096 104.909 32.4919 104.909 31.8427V31.7272C104.909 30.7571 105.312 29.939 106.115 29.2752C106.73 28.8206 107.438 28.5933 108.239 28.5933ZM105.809 31.7138V31.8561C105.809 32.5065 106.063 33.0754 106.57 33.5653C107.041 33.9713 107.595 34.1755 108.23 34.1755C109.046 34.1755 109.703 33.8485 110.197 33.1957C110.485 32.7775 110.629 32.3314 110.629 31.8561V31.7138C110.629 30.9456 110.286 30.3049 109.6 29.7907C109.176 29.5269 108.719 29.3944 108.229 29.3944C107.387 29.3944 106.712 29.7372 106.204 30.4228C105.941 30.8386 105.809 31.2689 105.809 31.7138Z" fill="#111518"/>
<path d="M112.605 28.5933H113.487C113.499 28.5957 113.505 28.6042 113.505 28.6151V31.3297H117.163V28.6151C117.163 28.6006 117.169 28.5933 117.181 28.5933H118.062C118.077 28.5957 118.084 28.6042 118.084 28.6151V34.9523C118.084 34.9669 118.077 34.9742 118.062 34.9742H117.181C117.169 34.9742 117.163 34.9669 117.163 34.9523V32.1393H113.505V34.9523C113.505 34.9669 113.499 34.9742 113.487 34.9742H112.605C112.591 34.9742 112.583 34.9669 112.583 34.9523V28.6151C112.586 28.6018 112.593 28.5933 112.605 28.5933Z" fill="#111518"/>
<path d="M122.498 28.5933C123.154 28.5933 123.664 28.7148 124.029 28.958C124.091 28.9823 124.172 29.0443 124.273 29.1452V29.9949H124.255C123.658 29.595 123.092 29.3944 122.554 29.3944H122.506C121.669 29.3944 121 29.7263 120.499 30.3912C120.217 30.8094 120.076 31.2738 120.076 31.7844C120.076 32.6353 120.438 33.3112 121.161 33.8096C121.573 34.0528 122.022 34.1743 122.506 34.1743H122.554C123.092 34.1743 123.658 33.9737 124.255 33.5738H124.273V34.4235C124.096 34.6071 123.798 34.7615 123.383 34.8867C123.114 34.9463 122.811 34.9754 122.475 34.9754C121.407 34.9754 120.538 34.5804 119.868 33.7914C119.413 33.2152 119.187 32.5575 119.187 31.8147V31.7527C119.187 30.7146 119.611 29.8685 120.46 29.2157C121.048 28.8011 121.728 28.5933 122.498 28.5933Z" fill="#111518"/>
<path d="M130.185 28.5933C130.2 28.5957 130.207 28.6042 130.207 28.6151C130.065 29.1136 129.983 29.3737 129.962 29.3944H128.031V34.9536C128.031 34.9682 128.024 34.9754 128.009 34.9754H127.137C127.125 34.9754 127.119 34.9682 127.119 34.9536V29.3944H124.952L124.93 29.3859L125.184 28.5933H130.185Z" fill="#111518"/>
<path d="M130.919 28.5933H133.523C134.215 28.5933 134.805 28.7756 135.294 29.1403C135.801 29.5561 136.055 30.0849 136.055 30.7292V30.903C136.055 31.6628 135.718 32.2499 135.04 32.6657C134.631 32.9234 134.027 33.0535 133.229 33.0535H131.819V34.9536C131.819 34.9682 131.813 34.9754 131.801 34.9754H130.919C130.905 34.9754 130.897 34.9682 130.897 34.9536V28.6164C130.9 28.6018 130.907 28.5933 130.919 28.5933ZM131.819 29.3944V32.2378H133.47C134.256 32.2378 134.78 31.957 135.042 31.3966C135.101 31.2191 135.13 31.0598 135.13 30.92V30.7425C135.13 30.0958 134.775 29.6703 134.067 29.4649C133.847 29.4175 133.631 29.3932 133.421 29.3932H131.819V29.3944Z" fill="#111518"/>
<path d="M136.144 28.5933H137.079C137.106 28.6115 137.281 28.9446 137.604 29.595C138.491 31.3163 138.994 32.3022 139.113 32.5551C139.158 32.4955 139.848 31.1814 141.187 28.6115L141.218 28.5933H142.081C142.067 28.6407 141.437 29.8113 140.195 32.1053C139.618 33.1909 139.251 33.8607 139.091 34.1123C138.664 34.6885 138.157 34.9754 137.574 34.9754H137.565C137.277 34.9754 136.995 34.9134 136.72 34.7882V34.054L136.734 34.0321C137.129 34.133 137.393 34.1841 137.526 34.1841H137.585C137.991 34.1841 138.346 33.9057 138.648 33.3477H138.657L136.146 28.603V28.5933H136.144Z" fill="#111518"/>
<path d="M142.576 28.5933H143.457C143.47 28.5957 143.476 28.6042 143.476 28.6151V31.2592H144.308C145.632 29.6448 146.363 28.7562 146.503 28.5933H147.446V28.6151L145.056 31.6154C145.124 31.7017 146.042 32.814 147.811 34.9536V34.9754H146.755C146.711 34.9305 145.898 33.9895 144.317 32.149H143.476V34.9536C143.476 34.9682 143.47 34.9754 143.457 34.9754H142.576C142.561 34.9754 142.554 34.9682 142.554 34.9536V28.6164C142.557 28.6018 142.564 28.5933 142.576 28.5933Z" fill="#111518"/>
<path d="M148.286 28.5933H149.144C149.159 28.5957 149.166 28.6042 149.166 28.6151V34.178H152.722V28.6151C152.724 28.6006 152.73 28.5933 152.74 28.5933H153.603C153.615 28.5957 153.622 28.6042 153.622 28.6151V34.178H154.587C154.599 34.178 154.605 34.1841 154.605 34.1962V36.1716C154.587 36.1899 154.307 36.2738 153.764 36.4257L153.755 36.4038V34.9754H148.286C148.271 34.9754 148.264 34.9694 148.264 34.9572V28.6151C148.267 28.6018 148.274 28.5933 148.286 28.5933Z" fill="#111518"/>
<path d="M155.549 28.5933H156.431C156.443 28.5957 156.449 28.6018 156.449 28.6115V34.9536C156.449 34.9682 156.443 34.9754 156.431 34.9754H155.549C155.535 34.9754 155.527 34.9682 155.527 34.9536V28.6115C155.53 28.5993 155.537 28.5933 155.549 28.5933Z" fill="#111518"/>
<path d="M157.841 27.1248C158.066 27.1248 158.218 27.2536 158.294 27.5125C158.303 27.5369 158.308 27.566 158.308 27.6013V27.6147C158.308 27.8286 158.188 27.9794 157.951 28.0681C157.895 28.0742 157.851 28.0766 157.818 28.0766C157.618 28.0766 157.475 27.966 157.386 27.7423C157.372 27.6827 157.364 27.6353 157.364 27.6001C157.364 27.3533 157.506 27.1953 157.791 27.1235H157.841V27.1248ZM158.246 28.5848H159.118C159.127 28.5848 159.137 28.5957 159.145 28.6164V34.9536C159.145 34.9681 159.139 34.9754 159.127 34.9754H158.237C158.223 34.9754 158.215 34.9681 158.215 34.9536V28.6164C158.215 28.6066 158.225 28.5969 158.246 28.5848ZM159.533 27.1248C159.747 27.1248 159.898 27.2439 159.986 27.4809C159.995 27.5162 160 27.5478 160 27.5745V27.6463C160 27.8505 159.873 27.9915 159.622 28.0693C159.586 28.0754 159.554 28.0778 159.524 28.0778C159.298 28.0778 159.146 27.9502 159.066 27.6949V27.5745C159.066 27.3727 159.188 27.2281 159.431 27.1381C159.439 27.1381 159.473 27.1345 159.533 27.1248Z" fill="#111518"/>
</svg>
