<svg width="160" height="43" viewBox="0 0 160 43" fill="none" xmlns="http://www.w3.org/2000/svg">
<path d="M26.6523 13.8543L32.6571 21.0406H40L25.282 3.42689C23.4865 1.27849 21.1985 0.0953437 18.6665 0.00480435C16.4505 -0.0703894 14.1441 0.739861 12.3487 2.23913C10.5379 3.75375 9.45446 5.78551 9.29947 7.96C9.18591 9.55748 9.52198 12.0281 11.7701 14.7182L17.4235 21.4826L17.026 21.0069L8.64268 28.158L8.88974 28.4526L7.32755 26.585H0L8.48001 36.7224C12.5896 41.8033 15.5191 42.9235 18.8138 42.9235C18.9396 42.9235 19.0654 42.922 19.1928 42.9189C21.6926 42.8576 24.0466 41.9629 26.0002 40.3301C28.4846 38.2539 29.9778 35.4916 30.2079 32.5499C30.4289 29.7155 29.4575 26.9763 27.4058 24.6346L24.929 21.6698L29.7506 17.5572L29.235 16.9403L29.1921 16.9771L22.9571 17.0063L26.6523 13.8543ZM32.5988 19.7148L28.2376 14.4957L33.4029 15.1249L32.5988 19.7148ZM28.302 13.6931V8.29607L33.3231 14.3039L28.302 13.6931ZM27.4964 8.01677V13.6103L22.8359 8.03212L27.4964 8.01677ZM33.3246 20.2365L34.184 15.3351L38.2798 20.2365H33.3246ZM17.5079 21.5839L23.0799 28.2516C25.0272 30.5826 24.7157 34.0614 22.3847 36.0088C21.2553 36.9526 19.8281 37.3991 18.3626 37.2687C16.8971 37.1367 15.5712 36.4431 14.6275 35.3152L9.15829 28.7779L9.23348 28.7135L15.5743 28.5953L11.741 31.8655L12.2581 32.4824L20.6399 25.3328L20.1243 24.7159L17.1534 27.251L17.5048 21.6621L17.5447 21.6284L17.5079 21.5839ZM10.1987 27.8894L16.6516 22.3849L16.3124 27.7758L10.1987 27.8894ZM28.2406 17.7889L24.4103 21.056L24.6175 21.3046L16.0945 11.1059C15.2689 10.1176 14.8623 9.16923 14.9206 8.36052C14.9789 7.5472 15.5191 6.93491 15.9626 6.56354C16.67 5.97273 17.5017 5.64433 18.3043 5.64127C18.3089 5.64127 18.312 5.64127 18.3166 5.64127C19.2941 5.64127 20.1826 6.11238 20.9591 7.04079L26.1367 13.2374L21.3151 17.35L21.8307 17.9669L22.0057 17.8165L28.2406 17.7889Z" fill="#FCFDFF"/>
<path d="M20.2409 16.0656L16.0961 11.1043C15.2705 10.1161 14.8638 9.1677 14.9221 8.35898C14.9804 7.54566 15.5206 6.93337 15.9641 6.56201C16.6715 5.9712 17.5033 5.6428 18.3058 5.63973H18.3181C19.2956 5.63973 20.1841 6.11084 20.9606 7.03926L21.1187 7.22954L28.4447 7.20959L25.2835 3.42689C23.4881 1.27849 21.2 0.0953437 18.668 0.00480435C16.4505 -0.0703894 14.1441 0.739861 12.3487 2.23913C10.5379 3.75375 9.45446 5.78551 9.29947 7.96C9.18591 9.55748 9.52198 12.0281 11.7701 14.7182L23.0799 28.2516C25.0272 30.5826 24.7157 34.0614 22.3847 36.0088C21.2553 36.9526 19.8281 37.3991 18.3626 37.2687C16.8971 37.1367 15.5712 36.4431 14.6275 35.3152L7.32755 26.5881H0L8.48001 36.7254C12.5896 41.8064 15.5191 42.9266 18.8138 42.9266C18.9396 42.9266 19.0654 42.9251 19.1928 42.922C21.6926 42.8606 24.0466 41.966 26.0002 40.3332C28.4846 38.2569 29.9777 35.4947 30.2079 32.553C30.4289 29.7186 29.4575 26.9794 27.4058 24.6377L20.3975 16.2513" fill="#E74510"/>
<path d="M63.5989 6.50128C65.934 6.50128 67.1336 7.89722 67.1336 10.3413V10.8212H64.8652V10.1886C64.8652 9.09807 64.429 8.68365 63.6656 8.68365C62.9022 8.68365 62.4659 9.09807 62.4659 10.1886C62.4659 13.3307 67.1566 13.9196 67.1566 18.2832C67.1566 20.7273 65.9352 22.1232 63.5783 22.1232C61.2214 22.1232 60 20.7273 60 18.2832V17.3453H62.2696V18.4358C62.2696 19.5264 62.7495 19.919 63.5129 19.919C64.2763 19.919 64.7561 19.5264 64.7561 18.4358C64.7561 15.2938 60.0654 14.7049 60.0654 10.3413C60.0642 7.89722 61.2639 6.50128 63.5989 6.50128Z" fill="#FCFDFF"/>
<path d="M67.8306 6.67578H75.2477V8.85694H72.7394V21.9475H70.3401V8.85815H67.8318V6.67578H67.8306Z" fill="#FCFDFF"/>
<path d="M78.6952 13.1114H81.9899V15.2926H78.6952V19.7651H82.8406V21.9463H76.2959V6.67578H82.8406V8.85694H78.6952V13.1114Z" fill="#FCFDFF"/>
<path d="M86.723 13.1114H90.0178V15.2926H86.723V19.7651H90.8684V21.9463H84.3237V6.67578H90.8684V8.85694H86.723V13.1114Z" fill="#FCFDFF"/>
<path d="M92.3516 6.67578H94.7508V19.7664H98.6999V21.9475H92.3516V6.67578Z" fill="#FCFDFF"/>
<path d="M102.43 6.67578H109.847V8.85694H107.339V21.9475H104.939V8.85815H102.431V6.67578H102.43Z" fill="#FCFDFF"/>
<path d="M110.894 6.67578H113.293V21.9475H110.894V6.67578Z" fill="#FCFDFF"/>
<path d="M120.121 17.5186L121.757 6.67578H125.095V21.9475H122.827V10.9957L121.169 21.9475H118.9L117.111 11.1484V21.9475H115.017V6.67578H118.355L120.121 17.5186Z" fill="#FCFDFF"/>
<path d="M129.24 13.1114H132.534V15.2926H129.24V19.7651H133.385V21.9463H126.84V6.67578H133.385V8.85694H129.24V13.1114Z" fill="#FCFDFF"/>
<path d="M138.25 6.67578H140.649V19.7664H144.598V21.9475H138.25V6.67578Z" fill="#FCFDFF"/>
<path d="M145.645 6.67578H148.044V19.7664H151.993V21.9475H145.645V6.67578Z" fill="#FCFDFF"/>
<path d="M160 16.2535V18.282C160 20.7261 158.778 22.122 156.422 22.122C154.066 22.122 152.843 20.7261 152.843 18.282V10.3413C152.843 7.89722 154.065 6.50128 156.422 6.50128C158.778 6.50128 160 7.89722 160 10.3413V11.8245H157.73V10.1886C157.73 9.09807 157.25 8.68365 156.487 8.68365C155.724 8.68365 155.244 9.09807 155.244 10.1886V18.4358C155.244 19.5264 155.724 19.919 156.487 19.919C157.25 19.919 157.73 19.5264 157.73 18.4358V16.2547H160V16.2535Z" fill="#FCFDFF"/>
<path d="M60.0295 28.593C60.3176 28.599 60.4757 28.6015 60.506 28.6015C62.366 31.4619 63.3312 32.9486 63.3993 33.0605H63.4078C63.4491 33.007 64.4107 31.5203 66.2913 28.6015H66.3096C66.3388 28.6015 66.4907 28.599 66.763 28.593C66.763 28.599 66.7679 28.6015 66.7764 28.6015C66.7825 29.3819 66.7849 29.98 66.7849 30.3958V34.9533C66.7849 34.9678 66.7776 34.9751 66.763 34.9751H65.9266L65.9048 34.9666C65.9108 34.7113 65.9133 34.5181 65.9133 34.388V32.742C65.9133 32.2205 65.9181 31.5154 65.9266 30.628V30.6195H65.9133C65.8574 30.7167 65.1839 31.7622 63.8929 33.7522C63.7093 34.0427 63.6084 34.191 63.5902 34.1971H63.1853C62.022 32.4016 61.2573 31.209 60.889 30.6182H60.8805V34.9533C60.8805 34.9678 60.8732 34.9751 60.8586 34.9751H60.0222C60.0076 34.9751 60.0003 34.9678 60.0003 34.9533V28.6161C59.9979 28.6015 60.0088 28.593 60.0295 28.593Z" fill="#FCFDFF"/>
<path d="M68.1964 28.593H72.6737V28.6015C72.6737 28.6282 72.5922 28.8847 72.4294 29.371L69.0863 29.3929V31.3464H72.2689L72.2871 31.3549C72.1242 31.8679 72.0367 32.1244 72.0245 32.1244H69.0875V34.1801H72.7855C72.7977 34.1825 72.8038 34.191 72.8038 34.202L72.5631 34.9715H68.1977C68.1831 34.9715 68.1758 34.9642 68.1758 34.9496V28.6124C68.177 28.6015 68.1843 28.593 68.1964 28.593Z" fill="#FCFDFF"/>
<path d="M78.2726 28.593C78.2872 28.5954 78.2945 28.6039 78.2945 28.6148C78.1523 29.1133 78.0708 29.3734 78.0501 29.3941H76.1185V34.9533C76.1185 34.9678 76.1112 34.9751 76.0966 34.9751H75.2237C75.2116 34.9751 75.2055 34.9678 75.2055 34.9533V29.3941H73.038L73.0161 29.3856L73.2702 28.593H78.2726Z" fill="#FCFDFF"/>
<path d="M81.6196 28.593C81.7083 28.7449 82.7234 30.8504 84.6636 34.9131C84.6697 34.9131 84.6794 34.9314 84.6952 34.9666L84.6733 34.9751H83.7348C83.6753 34.8767 83.4236 34.3479 82.9787 33.3863H79.9347C79.9225 33.3863 79.7378 33.7777 79.3779 34.5606C79.2442 34.8341 79.1737 34.9715 79.164 34.9739H78.2255L78.2036 34.9654L81.3278 28.5917H81.6196V28.593ZM81.4373 30.1599L80.2751 32.6386H82.6201L81.4579 30.1599H81.4373Z" fill="#FCFDFF"/>
<path d="M86.7106 28.593H91.1611C91.1757 28.5954 91.183 28.6039 91.183 28.6148V34.9484C91.183 34.963 91.1757 34.9703 91.1611 34.9703H90.3016C90.287 34.9703 90.2797 34.963 90.2797 34.9484V29.3941H87.4679C87.4144 31.4741 87.3403 32.7055 87.2455 33.0884C87.2455 33.2368 87.1652 33.5601 87.0048 34.0585C86.7349 34.7199 86.2899 35.0505 85.67 35.0505C85.4973 35.0505 85.3053 35.0238 85.0913 34.9703C85.1326 34.5132 85.1533 34.2457 85.1533 34.1692L85.1715 34.1607C85.281 34.1813 85.3794 34.1923 85.4657 34.1923C85.9824 34.1923 86.313 33.7327 86.4577 32.8125C86.5319 32.4891 86.606 31.1811 86.6802 28.8871C86.6802 28.6914 86.6899 28.593 86.7106 28.593Z" fill="#FCFDFF"/>
<path d="M95.568 28.593C96.6329 28.593 97.5094 28.9953 98.1986 29.7989C98.6375 30.3812 98.8575 31.023 98.8575 31.7257V31.8412C98.8575 32.8708 98.4199 33.7182 97.5446 34.3831C96.9453 34.7782 96.284 34.9751 95.5594 34.9751C94.4167 34.9751 93.505 34.5351 92.8218 33.6537C92.4328 33.0957 92.2383 32.4916 92.2383 31.8424V31.7269C92.2383 30.7568 92.6407 29.9387 93.4442 29.2749C94.0593 28.8203 94.7668 28.593 95.568 28.593ZM93.1379 31.7135V31.8558C93.1379 32.5061 93.3919 33.0751 93.8989 33.565C94.3705 33.971 94.9237 34.1752 95.5594 34.1752C96.3752 34.1752 97.0316 33.8482 97.5264 33.1954C97.8145 32.7772 97.9579 32.3311 97.9579 31.8558V31.7135C97.9579 30.9452 97.6151 30.3046 96.9295 29.7904C96.5052 29.5266 96.0481 29.3941 95.5582 29.3941C94.7158 29.3941 94.0411 29.7369 93.5329 30.4225C93.2692 30.8383 93.1379 31.2686 93.1379 31.7135Z" fill="#FCFDFF"/>
<path d="M99.9335 28.593H100.815C100.827 28.5954 100.833 28.6039 100.833 28.6148V31.2589H101.666C102.99 29.6445 103.72 28.7559 103.86 28.593H104.803V28.6148L102.413 31.6151C102.482 31.7014 103.401 32.8137 105.168 34.9533V34.9751H104.113C104.068 34.9302 103.256 33.9892 101.674 32.1487H100.833V34.9533C100.833 34.9678 100.827 34.9751 100.815 34.9751H99.9335C99.9189 34.9751 99.9116 34.9678 99.9116 34.9533V28.6161C99.9141 28.6015 99.9226 28.593 99.9335 28.593Z" fill="#FCFDFF"/>
<path d="M108.239 28.593C109.304 28.593 110.18 28.9953 110.87 29.7989C111.308 30.3812 111.528 31.023 111.528 31.7257V31.8412C111.528 32.8708 111.091 33.7182 110.216 34.3831C109.616 34.7782 108.955 34.9751 108.23 34.9751C107.088 34.9751 106.176 34.5351 105.493 33.6537C105.104 33.0957 104.909 32.4916 104.909 31.8424V31.7269C104.909 30.7568 105.312 29.9387 106.115 29.2749C106.73 28.8203 107.438 28.593 108.239 28.593ZM105.809 31.7135V31.8558C105.809 32.5061 106.063 33.0751 106.57 33.565C107.041 33.971 107.595 34.1752 108.23 34.1752C109.046 34.1752 109.703 33.8482 110.197 33.1954C110.485 32.7772 110.629 32.3311 110.629 31.8558V31.7135C110.629 30.9452 110.286 30.3046 109.6 29.7904C109.176 29.5266 108.719 29.3941 108.229 29.3941C107.387 29.3941 106.712 29.7369 106.204 30.4225C105.941 30.8383 105.809 31.2686 105.809 31.7135Z" fill="#FCFDFF"/>
<path d="M112.605 28.593H113.487C113.499 28.5954 113.505 28.6039 113.505 28.6148V31.3294H117.163V28.6148C117.163 28.6003 117.169 28.593 117.181 28.593H118.062C118.077 28.5954 118.084 28.6039 118.084 28.6148V34.952C118.084 34.9666 118.077 34.9739 118.062 34.9739H117.181C117.169 34.9739 117.163 34.9666 117.163 34.952V32.139H113.505V34.952C113.505 34.9666 113.499 34.9739 113.487 34.9739H112.605C112.591 34.9739 112.583 34.9666 112.583 34.952V28.6148C112.586 28.6015 112.593 28.593 112.605 28.593Z" fill="#FCFDFF"/>
<path d="M122.498 28.593C123.154 28.593 123.664 28.7145 124.029 28.9577C124.091 28.982 124.172 29.044 124.273 29.1449V29.9946H124.255C123.658 29.5947 123.092 29.3941 122.554 29.3941H122.506C121.669 29.3941 121 29.7259 120.499 30.3909C120.217 30.8091 120.076 31.2735 120.076 31.784C120.076 32.635 120.438 33.3109 121.161 33.8093C121.573 34.0525 122.022 34.174 122.506 34.174H122.554C123.092 34.174 123.658 33.9734 124.255 33.5735H124.273V34.4232C124.096 34.6068 123.798 34.7612 123.383 34.8864C123.114 34.946 122.811 34.9751 122.475 34.9751C121.407 34.9751 120.538 34.5801 119.868 33.7911C119.413 33.2149 119.187 32.5572 119.187 31.8144V31.7524C119.187 30.7143 119.611 29.8682 120.46 29.2154C121.048 28.8008 121.728 28.593 122.498 28.593Z" fill="#FCFDFF"/>
<path d="M130.185 28.593C130.2 28.5954 130.207 28.6039 130.207 28.6148C130.065 29.1133 129.983 29.3734 129.962 29.3941H128.031V34.9533C128.031 34.9678 128.024 34.9751 128.009 34.9751H127.137C127.125 34.9751 127.119 34.9678 127.119 34.9533V29.3941H124.952L124.93 29.3856L125.184 28.593H130.185Z" fill="#FCFDFF"/>
<path d="M130.919 28.593H133.523C134.215 28.593 134.805 28.7753 135.294 29.14C135.801 29.5558 136.055 30.0846 136.055 30.7289V30.9027C136.055 31.6625 135.718 32.2496 135.04 32.6654C134.631 32.9231 134.027 33.0532 133.229 33.0532H131.819V34.9533C131.819 34.9678 131.813 34.9751 131.801 34.9751H130.919C130.905 34.9751 130.897 34.9678 130.897 34.9533V28.6161C130.9 28.6015 130.907 28.593 130.919 28.593ZM131.819 29.3941V32.2375H133.47C134.256 32.2375 134.78 31.9567 135.042 31.3963C135.101 31.2188 135.13 31.0595 135.13 30.9197V30.7422C135.13 30.0955 134.775 29.67 134.067 29.4646C133.847 29.4172 133.631 29.3929 133.421 29.3929H131.819V29.3941Z" fill="#FCFDFF"/>
<path d="M136.144 28.593H137.079C137.106 28.6112 137.281 28.9443 137.604 29.5947C138.491 31.316 138.994 32.3019 139.113 32.5548C139.158 32.4952 139.848 31.1811 141.187 28.6112L141.218 28.593H142.081C142.067 28.6404 141.437 29.811 140.195 32.105C139.618 33.1906 139.251 33.8604 139.091 34.112C138.664 34.6882 138.157 34.9751 137.574 34.9751H137.565C137.277 34.9751 136.995 34.9131 136.72 34.7879V34.0537L136.734 34.0318C137.129 34.1327 137.393 34.1837 137.526 34.1837H137.585C137.991 34.1837 138.346 33.9054 138.648 33.3474H138.657L136.146 28.6027V28.593H136.144Z" fill="#FCFDFF"/>
<path d="M142.576 28.593H143.457C143.47 28.5954 143.476 28.6039 143.476 28.6148V31.2589H144.308C145.632 29.6445 146.363 28.7559 146.503 28.593H147.446V28.6148L145.056 31.6151C145.124 31.7014 146.042 32.8137 147.811 34.9533V34.9751H146.755C146.711 34.9302 145.898 33.9892 144.317 32.1487H143.476V34.9533C143.476 34.9678 143.47 34.9751 143.457 34.9751H142.576C142.561 34.9751 142.554 34.9678 142.554 34.9533V28.6161C142.557 28.6015 142.564 28.593 142.576 28.593Z" fill="#FCFDFF"/>
<path d="M148.286 28.593H149.144C149.159 28.5954 149.166 28.6039 149.166 28.6148V34.1777H152.722V28.6148C152.724 28.6003 152.73 28.593 152.74 28.593H153.603C153.615 28.5954 153.622 28.6039 153.622 28.6148V34.1777H154.587C154.599 34.1777 154.605 34.1837 154.605 34.1959V36.1713C154.587 36.1896 154.307 36.2735 153.764 36.4254L153.755 36.4035V34.9751H148.286C148.271 34.9751 148.264 34.9691 148.264 34.9569V28.6148C148.267 28.6015 148.274 28.593 148.286 28.593Z" fill="#FCFDFF"/>
<path d="M155.549 28.593H156.431C156.443 28.5954 156.449 28.6015 156.449 28.6112V34.9533C156.449 34.9678 156.443 34.9751 156.431 34.9751H155.549C155.535 34.9751 155.527 34.9678 155.527 34.9533V28.6112C155.53 28.599 155.537 28.593 155.549 28.593Z" fill="#FCFDFF"/>
<path d="M157.841 27.1244C158.066 27.1244 158.218 27.2533 158.294 27.5122C158.303 27.5366 158.308 27.5657 158.308 27.601V27.6144C158.308 27.8283 158.188 27.9791 157.951 28.0678C157.895 28.0739 157.851 28.0763 157.818 28.0763C157.618 28.0763 157.475 27.9657 157.386 27.742C157.372 27.6824 157.364 27.635 157.364 27.5998C157.364 27.353 157.506 27.195 157.791 27.1232H157.841V27.1244ZM158.246 28.5844H159.118C159.127 28.5844 159.137 28.5954 159.145 28.6161V34.9533C159.145 34.9678 159.139 34.9751 159.127 34.9751H158.237C158.223 34.9751 158.215 34.9678 158.215 34.9533V28.6161C158.215 28.6063 158.225 28.5966 158.246 28.5844ZM159.533 27.1244C159.747 27.1244 159.898 27.2436 159.986 27.4806C159.995 27.5159 160 27.5475 160 27.5742V27.646C160 27.8502 159.873 27.9912 159.622 28.069C159.586 28.0751 159.554 28.0775 159.524 28.0775C159.298 28.0775 159.146 27.9499 159.066 27.6946V27.5742C159.066 27.3724 159.188 27.2278 159.431 27.1378C159.439 27.1378 159.473 27.1342 159.533 27.1244Z" fill="#FCFDFF"/>
</svg>
